<svg width="30" height="24" viewBox="0 0 30 24" fill="none" xmlns="http://www.w3.org/2000/svg">
<path d="M29.9122 17.2249L25.6622 3.07494C25.5805 2.78875 25.4344 2.52505 25.2351 2.30405C25.0358 2.08305 24.7885 1.91061 24.5122 1.79994H24.4372L24.5122 1.77494C23.1177 1.21618 21.6739 0.789312 20.1997 0.499936C20.0709 0.474466 19.9382 0.474633 19.8094 0.500428C19.6806 0.526222 19.5582 0.577139 19.4491 0.650269C19.34 0.723399 19.2463 0.81731 19.1735 0.926637C19.1007 1.03596 19.0501 1.15856 19.0247 1.28744C18.9974 1.41555 18.9958 1.54782 19.0201 1.67655C19.0444 1.80528 19.094 1.92789 19.1661 2.03725C19.2383 2.1466 19.3314 2.24051 19.4402 2.31351C19.549 2.38651 19.6712 2.43713 19.7997 2.46244C20.3622 2.57494 20.9122 2.71244 21.4497 2.86244C21.6477 2.9652 21.8056 3.1312 21.8984 3.33404C21.9912 3.53689 22.0135 3.76493 21.9618 3.9819C21.91 4.19888 21.7872 4.39233 21.6129 4.5315C21.4386 4.67066 21.2228 4.74755 20.9997 4.74994H20.8997C18.9734 4.24757 16.9904 3.9955 14.9997 3.99994C13.0558 3.99414 11.1191 4.2378 9.23722 4.72494C8.99774 4.78812 8.74334 4.76019 8.52328 4.64656C8.30322 4.53293 8.13316 4.34167 8.04602 4.10984C7.95889 3.87801 7.96089 3.62208 8.05163 3.39164C8.14238 3.16119 8.31541 2.97262 8.53722 2.86244H8.54972C9.08722 2.71244 9.63722 2.57494 10.1997 2.46244C10.3286 2.43702 10.4512 2.38646 10.5605 2.31364C10.6698 2.24083 10.7638 2.14719 10.8369 2.03808C10.91 1.92896 10.9609 1.80651 10.9867 1.67771C11.0125 1.54892 11.0127 1.4163 10.9872 1.28744C10.9329 1.02878 10.7796 0.801627 10.56 0.654483C10.3405 0.50734 10.0721 0.451875 9.81222 0.499936C8.33275 0.795784 6.88462 1.23106 5.48722 1.79994C5.21094 1.91061 4.96367 2.08305 4.76433 2.30405C4.565 2.52505 4.4189 2.78875 4.33722 3.07494L0.087216 17.2249C-0.0230388 17.5949 -0.0238745 17.9888 0.0848097 18.3593C0.193494 18.7297 0.407053 19.0607 0.699716 19.3124C0.814706 19.4232 0.935723 19.5275 1.06222 19.6249H1.07472C3.09972 21.2749 5.76222 22.5374 8.76222 23.2624C8.839 23.287 8.9191 23.2997 8.99972 23.2999C9.24696 23.3039 9.48688 23.216 9.67317 23.0534C9.85945 22.8908 9.97889 22.665 10.0084 22.4195C10.0379 22.174 9.97545 21.9262 9.83302 21.7241C9.6906 21.5219 9.47834 21.3797 9.23722 21.3249C7.88853 20.9991 6.57733 20.5341 5.32472 19.9374C5.15327 19.7768 5.04387 19.5609 5.01569 19.3277C4.98751 19.0944 5.04235 18.8587 5.1706 18.6618C5.29886 18.465 5.49232 18.3196 5.71707 18.2511C5.94182 18.1827 6.1835 18.1955 6.39972 18.2874C8.77472 19.3374 11.7622 19.9999 14.9997 19.9999C18.2372 19.9999 21.2247 19.3374 23.5997 18.2874C23.8159 18.1955 24.0576 18.1827 24.2824 18.2511C24.5071 18.3196 24.7006 18.465 24.8288 18.6618C24.9571 18.8587 25.0119 19.0944 24.9837 19.3277C24.9556 19.5609 24.8462 19.7768 24.6747 19.9374C23.4221 20.5341 22.1109 20.9991 20.7622 21.3249C20.5211 21.3797 20.3088 21.5219 20.1664 21.7241C20.024 21.9262 19.9615 22.174 19.991 22.4195C20.0205 22.665 20.14 22.8908 20.3263 23.0534C20.5125 23.216 20.7525 23.3039 20.9997 23.2999C21.0803 23.2997 21.1604 23.287 21.2372 23.2624C24.2372 22.5374 26.8997 21.2749 28.9247 19.6249H28.9372C29.0637 19.5275 29.1847 19.4232 29.2997 19.3124C29.5924 19.0607 29.8059 18.7297 29.9146 18.3593C30.0233 17.9888 30.0225 17.5949 29.9122 17.2249ZM10.9997 15.4999C10.703 15.4999 10.413 15.412 10.1664 15.2471C9.91969 15.0823 9.72743 14.848 9.6139 14.574C9.50037 14.2999 9.47066 13.9983 9.52854 13.7073C9.58642 13.4163 9.72928 13.1491 9.93906 12.9393C10.1488 12.7295 10.4161 12.5866 10.7071 12.5288C10.9981 12.4709 11.2997 12.5006 11.5737 12.6141C11.8478 12.7276 12.0821 12.9199 12.2469 13.1666C12.4117 13.4133 12.4997 13.7033 12.4997 13.9999C12.4997 14.3978 12.3417 14.7793 12.0604 15.0606C11.7791 15.3419 11.3975 15.4999 10.9997 15.4999ZM18.9997 15.4999C18.703 15.4999 18.413 15.412 18.1664 15.2471C17.9197 15.0823 17.7274 14.848 17.6139 14.574C17.5004 14.2999 17.4707 13.9983 17.5285 13.7073C17.5864 13.4163 17.7293 13.1491 17.9391 12.9393C18.1488 12.7295 18.4161 12.5866 18.7071 12.5288C18.9981 12.4709 19.2997 12.5006 19.5737 12.6141C19.8478 12.7276 20.0821 12.9199 20.2469 13.1666C20.4117 13.4133 20.4997 13.7033 20.4997 13.9999C20.4997 14.3978 20.3417 14.7793 20.0604 15.0606C19.7791 15.3419 19.3975 15.4999 18.9997 15.4999Z" fill="#F6F7F7"/>
</svg>
