<svg width="25" height="25" viewBox="0 0 25 25" fill="none" xmlns="http://www.w3.org/2000/svg">
<path d="M23.85 9.96245L13.85 0.87495C13.4813 0.537649 12.9997 0.350586 12.5 0.350586C12.0003 0.350586 11.5187 0.537649 11.15 0.87495L1.15 9.96245C0.945256 10.1498 0.781732 10.3776 0.669827 10.6316C0.557923 10.8855 0.500088 11.16 0.5 11.4375V23C0.5 23.5304 0.710714 24.0391 1.08579 24.4142C1.46086 24.7892 1.96957 25 2.5 25H22.5C23.0304 25 23.5391 24.7892 23.9142 24.4142C24.2893 24.0391 24.5 23.5304 24.5 23V11.4375C24.4999 11.16 24.4421 10.8855 24.3302 10.6316C24.2183 10.3776 24.0547 10.1498 23.85 9.96245Z" fill="#F6F7F7"/>
</svg>
