<svg width="48" height="48" viewBox="0 0 48 48" fill="none" xmlns="http://www.w3.org/2000/svg">
<rect width="48" height="48" rx="8" fill="#F8F2FF" fill-opacity="0.15"/>
<path d="M18 33C20.2091 33 22 31.2091 22 29C22 26.7909 20.2091 25 18 25C15.7909 25 14 26.7909 14 29C14 31.2091 15.7909 33 18 33Z" stroke="#F8F2FF" stroke-width="2" stroke-linecap="round" stroke-linejoin="round"/>
<path d="M12 36C12.6986 35.0685 13.6045 34.3125 14.6459 33.7918C15.6873 33.2711 16.8357 33 18 33C19.1643 33 20.3127 33.2711 21.3541 33.7918C22.3955 34.3125 23.3014 35.0685 24 36" stroke="#F8F2FF" stroke-width="2" stroke-linecap="round" stroke-linejoin="round"/>
<path d="M18 20C20.2091 20 22 18.2091 22 16C22 13.7909 20.2091 12 18 12C15.7909 12 14 13.7909 14 16C14 18.2091 15.7909 20 18 20Z" stroke="#F8F2FF" stroke-width="2" stroke-linecap="round" stroke-linejoin="round"/>
<path d="M12 23C12.6986 22.0685 13.6045 21.3125 14.6459 20.7918C15.6873 20.2711 16.8357 20 18 20C19.1643 20 20.3127 20.2711 21.3541 20.7918C22.3955 21.3125 23.3014 22.0685 24 23" stroke="#F8F2FF" stroke-width="2" stroke-linecap="round" stroke-linejoin="round"/>
<path d="M30 33C32.2091 33 34 31.2091 34 29C34 26.7909 32.2091 25 30 25C27.7909 25 26 26.7909 26 29C26 31.2091 27.7909 33 30 33Z" stroke="#F8F2FF" stroke-width="2" stroke-linecap="round" stroke-linejoin="round"/>
<path d="M24 36C24.6986 35.0685 25.6045 34.3125 26.6459 33.7918C27.6873 33.2711 28.8357 33 30 33C31.1643 33 32.3127 33.2711 33.3541 33.7918C34.3955 34.3125 35.3014 35.0685 36 36" stroke="#F8F2FF" stroke-width="2" stroke-linecap="round" stroke-linejoin="round"/>
<path d="M30 20C32.2091 20 34 18.2091 34 16C34 13.7909 32.2091 12 30 12C27.7909 12 26 13.7909 26 16C26 18.2091 27.7909 20 30 20Z" stroke="#F8F2FF" stroke-width="2" stroke-linecap="round" stroke-linejoin="round"/>
<path d="M24 23C24.6986 22.0685 25.6045 21.3125 26.6459 20.7918C27.6873 20.2711 28.8357 20 30 20C31.1643 20 32.3127 20.2711 33.3541 20.7918C34.3955 21.3125 35.3014 22.0685 36 23" stroke="#F8F2FF" stroke-width="2" stroke-linecap="round" stroke-linejoin="round"/>
</svg>
