<svg width="48" height="48" viewBox="0 0 48 48" fill="none" xmlns="http://www.w3.org/2000/svg">
<rect width="48" height="48" rx="8" fill="#F8F2FF" fill-opacity="0.15"/>
<path d="M33 14H25V10C25 9.73478 24.8946 9.48043 24.7071 9.29289C24.5196 9.10536 24.2652 9 24 9C23.7348 9 23.4804 9.10536 23.2929 9.29289C23.1054 9.48043 23 9.73478 23 10V14H15C13.9401 14.0033 12.9246 14.4258 12.1752 15.1752C11.4258 15.9246 11.0033 16.9401 11 18V32C11.0033 33.0599 11.4258 34.0754 12.1752 34.8248C12.9246 35.5742 13.9401 35.9967 15 36H33C34.0599 35.9967 35.0754 35.5742 35.8248 34.8248C36.5742 34.0754 36.9967 33.0599 37 32V18C36.9967 16.9401 36.5742 15.9246 35.8248 15.1752C35.0754 14.4258 34.0599 14.0033 33 14ZM17 21.5C17 21.2033 17.088 20.9133 17.2528 20.6666C17.4176 20.42 17.6519 20.2277 17.926 20.1142C18.2001 20.0006 18.5017 19.9709 18.7926 20.0288C19.0836 20.0867 19.3509 20.2296 19.5607 20.4393C19.7704 20.6491 19.9133 20.9164 19.9712 21.2074C20.0291 21.4983 19.9994 21.7999 19.8858 22.074C19.7723 22.3481 19.58 22.5824 19.3334 22.7472C19.0867 22.912 18.7967 23 18.5 23C18.1022 23 17.7206 22.842 17.4393 22.5607C17.158 22.2794 17 21.8978 17 21.5ZM20.5 31H19.5C18.9696 31 18.4609 30.7893 18.0858 30.4142C17.7107 30.0391 17.5 29.5304 17.5 29C17.5 28.4696 17.7107 27.9609 18.0858 27.5858C18.4609 27.2107 18.9696 27 19.5 27H20.5V31ZM25.5 31H22.5V27H25.5V31ZM28.5 31H27.5V27H28.5C29.0304 27 29.5391 27.2107 29.9142 27.5858C30.2893 27.9609 30.5 28.4696 30.5 29C30.5 29.5304 30.2893 30.0391 29.9142 30.4142C29.5391 30.7893 29.0304 31 28.5 31ZM29.5 23C29.2033 23 28.9133 22.912 28.6666 22.7472C28.42 22.5824 28.2277 22.3481 28.1142 22.074C28.0007 21.7999 27.9709 21.4983 28.0288 21.2074C28.0867 20.9164 28.2296 20.6491 28.4393 20.4393C28.6491 20.2296 28.9164 20.0867 29.2074 20.0288C29.4983 19.9709 29.7999 20.0006 30.074 20.1142C30.3481 20.2277 30.5824 20.42 30.7472 20.6666C30.912 20.9133 31 21.2033 31 21.5C31 21.8978 30.842 22.2794 30.5607 22.5607C30.2794 22.842 29.8978 23 29.5 23Z" fill="#F8F2FF"/>
</svg>
